<?xml version="1.0" standalone="no"?>
<!DOCTYPE svg PUBLIC "-//W3C//DTD SVG 20010904//EN"
 "http://www.w3.org/TR/2001/REC-SVG-20010904/DTD/svg10.dtd">
<svg version="1.0" xmlns="http://www.w3.org/2000/svg"
 width="1088.000000pt" height="1088.000000pt" viewBox="0 0 1088.000000 1088.000000"
 preserveAspectRatio="xMidYMid meet">
<metadata>
Created by potrace 1.14, written by Peter Selinger 2001-2017
</metadata>
<g transform="translate(0.000000,1088.000000) scale(0.100000,-0.100000)"
fill="#000000" stroke="none">
<path d="M4683 10320 c-18 -5 -19 -25 -19 -473 1 -302 -3 -471 -9 -475 -5 -4
-19 -7 -30 -8 -36 -2 -150 -16 -170 -20 -27 -6 -81 -15 -114 -19 -14 -2 -27
-4 -28 -6 -4 -3 -96 -22 -118 -24 -5 -1 -30 -7 -55 -14 -25 -7 -52 -15 -60
-16 -106 -22 -379 -121 -525 -189 -53 -25 -101 -46 -105 -46 -5 0 -10 -3 -12
-7 -1 -5 -19 -16 -38 -25 -56 -27 -115 -62 -118 -70 -2 -5 -10 -8 -18 -8 -8 0
-14 -4 -14 -10 0 -5 -5 -10 -11 -10 -6 0 -21 -8 -34 -17 -12 -10 -33 -25 -45
-33 -56 -37 -149 -111 -177 -139 -18 -17 -34 -31 -37 -31 -11 0 -159 -157
-218 -230 -33 -41 -70 -88 -84 -105 -13 -16 -24 -35 -24 -42 0 -6 -4 -13 -8
-15 -10 -3 -95 -148 -129 -218 -23 -49 -57 -122 -58 -130 -1 -3 -4 -12 -8 -20
-31 -82 -69 -216 -82 -295 -18 -109 -28 -188 -29 -240 -1 -22 -5 -45 -9 -52
-4 -6 -3 -14 3 -18 6 -4 8 -11 4 -16 -11 -18 -3 -384 10 -454 3 -18 18 -117
21 -140 1 -10 14 -75 22 -110 3 -11 6 -27 8 -35 1 -8 5 -22 8 -30 3 -8 18 -53
33 -100 33 -103 130 -310 176 -375 56 -77 109 -147 133 -175 79 -91 217 -217
294 -269 20 -14 38 -27 41 -30 9 -11 98 -71 105 -71 3 0 11 -5 18 -10 19 -17
127 -79 127 -74 0 3 12 -3 27 -14 28 -19 51 -29 67 -30 5 0 12 -4 15 -9 9 -13
336 -149 371 -155 6 -1 6 -1 95 -28 39 -11 84 -25 102 -31 18 -5 40 -12 50
-14 10 -1 65 -14 123 -28 58 -14 121 -28 140 -31 19 -3 46 -8 60 -11 14 -3 36
-7 50 -10 14 -3 41 -8 60 -10 19 -3 44 -8 56 -10 11 -2 45 -7 75 -11 30 -3 58
-10 64 -15 6 -6 10 -454 10 -1254 l0 -1244 -25 5 c-104 24 -290 81 -305 95 -5
5 -16 9 -25 9 -38 0 -369 182 -426 235 -6 5 -30 26 -55 45 -59 47 -178 167
-215 216 -16 21 -31 41 -35 44 -19 17 -95 142 -137 226 -55 109 -91 208 -127
344 -11 41 -34 164 -40 213 -3 20 -8 56 -11 80 -5 36 -13 288 -14 412 l0 41
-582 -1 -583 0 1 -260 c0 -143 4 -289 7 -325 4 -36 9 -87 12 -115 3 -27 10
-75 17 -105 6 -30 11 -58 10 -62 -1 -4 6 -36 15 -70 9 -35 17 -70 18 -78 1 -8
5 -22 8 -30 3 -8 17 -55 32 -105 47 -157 164 -431 203 -477 8 -10 11 -18 6
-18 -5 0 -4 -4 1 -8 6 -4 19 -23 29 -42 19 -35 126 -200 136 -210 3 -3 25 -32
50 -65 108 -143 276 -318 409 -425 24 -19 55 -45 69 -57 14 -13 28 -23 32 -23
4 0 18 -9 31 -21 13 -12 49 -37 79 -57 30 -20 57 -40 58 -44 2 -5 7 -8 11 -8
5 0 50 -26 102 -57 107 -64 210 -118 222 -115 4 1 7 -2 7 -6 0 -4 17 -14 38
-21 20 -8 66 -27 102 -44 66 -30 375 -136 420 -143 14 -3 33 -7 42 -10 9 -3
25 -6 35 -8 10 -2 45 -11 78 -19 60 -16 73 -19 150 -32 22 -3 47 -9 55 -12 8
-3 24 -7 35 -8 67 -6 60 48 59 -478 0 -259 2 -478 4 -484 3 -10 123 -13 553
-13 l549 0 0 470 0 470 38 1 c41 1 76 4 167 14 33 4 75 9 93 11 55 5 273 44
342 60 36 9 72 17 80 19 121 26 375 110 485 160 17 8 45 20 63 27 17 7 32 16
32 19 0 3 6 6 13 6 16 0 217 111 298 164 66 44 206 145 225 163 7 6 29 25 50
43 62 50 154 142 224 224 89 104 100 118 100 128 0 5 4 11 9 13 5 2 32 39 60
83 28 44 55 85 61 92 5 7 10 19 10 28 0 8 5 15 10 15 6 0 10 9 10 20 0 11 3
20 8 20 4 0 13 15 20 33 7 17 18 41 24 51 5 10 20 46 33 80 13 34 29 75 36 91
6 17 13 37 14 45 1 8 10 40 19 71 9 31 19 66 21 78 29 129 35 168 50 291 21
171 20 552 -1 690 -3 19 -7 46 -9 60 -2 14 -7 41 -11 60 -3 19 -8 45 -9 57 -2
11 -6 30 -9 41 -4 11 -9 30 -11 42 -4 22 -12 46 -46 150 -55 166 -155 350
-272 500 -65 84 -224 241 -307 305 -36 27 -67 52 -70 55 -12 13 -183 122 -257
163 -100 55 -313 157 -328 157 -4 0 -21 6 -38 14 -128 56 -466 159 -632 192
-11 2 -31 6 -45 9 -126 28 -340 64 -472 80 -26 3 -55 8 -63 11 -13 5 -15 133
-15 1100 l0 1094 33 -7 c30 -6 167 -51 232 -76 102 -40 312 -156 380 -209 146
-113 251 -218 332 -332 12 -17 26 -36 31 -41 13 -16 112 -215 106 -215 -2 0 2
-12 10 -27 16 -33 52 -178 61 -248 6 -41 14 -246 15 -355 l0 -25 577 0 c318 0
580 3 583 7 8 11 4 412 -5 483 -15 125 -30 220 -35 220 -1 0 -3 11 -5 25 -4
26 -51 194 -62 220 -3 8 -7 17 -8 20 -16 64 -117 277 -184 389 -28 46 -51 86
-51 88 0 2 -5 9 -10 16 -6 7 -41 53 -78 104 -76 104 -150 190 -238 277 -70 71
-184 172 -216 194 -13 9 -25 19 -28 22 -7 9 -189 140 -194 140 -3 0 -24 13
-48 29 -73 49 -222 129 -323 173 -38 17 -88 38 -110 48 -84 38 -336 125 -389
136 -10 2 -42 10 -70 18 -53 15 -178 43 -231 52 -16 2 -40 7 -52 9 l-23 5 0
490 0 490 -22 1 c-100 4 -1051 3 -1065 -1z m-18 -3115 c1 -577 -1 -1056 -3
-1063 -3 -9 -13 -11 -31 -7 -14 4 -37 9 -51 11 -333 60 -651 201 -812 359
-107 104 -212 291 -234 415 -3 14 -8 34 -11 45 -12 38 -25 174 -25 255 -1 118
26 267 62 345 11 24 20 47 20 51 0 11 73 127 100 158 79 93 194 190 295 249
154 91 427 196 552 214 18 3 45 8 60 12 15 4 39 7 53 7 l25 -1 0 -1050z m1180
-2319 c17 -2 55 -9 85 -16 30 -6 66 -13 80 -16 74 -14 299 -78 395 -112 432
-154 648 -356 739 -692 13 -50 18 -73 32 -182 11 -87 5 -287 -11 -368 -2 -8
-5 -26 -8 -40 -45 -231 -189 -463 -379 -611 -24 -18 -45 -36 -48 -39 -20 -22
-267 -162 -290 -165 -3 0 -14 -6 -25 -11 -83 -45 -394 -129 -551 -148 -28 -4
-60 -8 -72 -11 l-22 -4 0 1215 0 1214 23 -5 c12 -3 36 -7 52 -9z"/>
</g>
</svg>
